<mxfile host="65bd71144e" modified="2022-10-14T11:31:09.861Z" agent="5.0 (Windows NT 10.0; Win64; x64) AppleWebKit/537.36 (KHTML, like Gecko) Code/1.72.0 Chrome/102.0.5005.167 Electron/19.0.17 Safari/537.36" version="20.4.0" etag="h_GsTKbI0g_R8MrrVAjM" type="embed">
    <diagram id="c2gmq8aP_JKwdDlsIQsd" name="ページ1">
        <mxGraphModel dx="1124" dy="615" grid="1" gridSize="10" guides="1" tooltips="1" connect="1" arrows="1" fold="1" page="1" pageScale="1" pageWidth="827" pageHeight="1169" math="0" shadow="0">
            <root>
                <mxCell id="0"/>
                <mxCell id="1" parent="0"/>
                <mxCell id="2" value="start" style="ellipse;whiteSpace=wrap;html=1;" vertex="1" parent="1">
                    <mxGeometry x="354" y="40" width="120" height="80" as="geometry"/>
                </mxCell>
            </root>
        </mxGraphModel>
    </diagram>
</mxfile>